<svg width="393" height="455" viewBox="0 0 393 455" fill="none" xmlns="http://www.w3.org/2000/svg">
<rect width="393" height="410" transform="translate(0 23)" fill="#FFEEB9"/>
<path d="M0 429H393V433.397C393 445.329 384.203 455 373.35 455C362.497 455 353.7 445.329 353.7 433.397C353.7 445.329 344.903 455 334.05 455C323.197 455 314.4 445.329 314.4 433.397C314.4 445.329 305.603 455 294.75 455C283.897 455 275.1 445.329 275.1 433.397C275.1 445.329 266.303 455 255.45 455C244.597 455 235.8 445.329 235.8 433.397C235.8 445.329 227.003 455 216.15 455C205.297 455 196.5 445.329 196.5 433.397C196.5 445.329 187.703 455 176.85 455C165.997 455 157.2 445.329 157.2 433.397C157.2 445.329 148.403 455 137.55 455C126.697 455 117.9 445.329 117.9 433.397C117.9 445.329 109.103 455 98.25 455C87.397 455 78.6 445.329 78.6 433.397C78.6 445.329 69.803 455 58.95 455C48.097 455 39.3 445.329 39.3 433.397C39.3 445.329 30.503 455 19.65 455C8.797 455 0 445.329 0 433.397V429Z" fill="#FFEEB9"/>
<path d="M393 23.65L0 23.65V19.65C0 8.79702 8.79699 2.47955e-05 19.65 2.47955e-05C30.503 2.47955e-05 39.3 8.79702 39.3 19.65C39.3 8.79702 48.097 2.47955e-05 58.95 2.47955e-05C69.803 2.47955e-05 78.6 8.79702 78.6 19.65C78.6 8.79702 87.397 2.47955e-05 98.25 2.47955e-05C109.103 2.47955e-05 117.9 8.79702 117.9 19.65C117.9 8.79702 126.697 2.47955e-05 137.55 2.47955e-05C148.403 2.47955e-05 157.2 8.79702 157.2 19.65C157.2 8.79702 165.997 2.47955e-05 176.85 2.47955e-05C187.703 2.47955e-05 196.5 8.79702 196.5 19.65C196.5 8.79702 205.297 2.47955e-05 216.15 2.47955e-05C227.003 2.47955e-05 235.8 8.79702 235.8 19.65C235.8 8.79702 244.597 2.47955e-05 255.45 2.47955e-05C266.303 2.47955e-05 275.1 8.79702 275.1 19.65C275.1 8.79702 283.897 2.47955e-05 294.75 2.47955e-05C305.603 2.47955e-05 314.4 8.79702 314.4 19.65C314.4 8.79702 323.197 2.47955e-05 334.05 2.47955e-05C344.903 2.47955e-05 353.7 8.79702 353.7 19.65C353.7 8.79702 362.497 2.47955e-05 373.35 2.47955e-05C384.203 2.47955e-05 393 8.79702 393 19.65V23.65Z" fill="#FFEEB9"/>
</svg>
