<svg width="1280" height="930" viewBox="0 0 1280 930" fill="none" xmlns="http://www.w3.org/2000/svg">
<rect x="-3.99695" y="45" width="1283.99" height="843" fill="#FFEEB9"/>
<ellipse cx="37.6325" cy="42" rx="42.6325" ry="42" fill="#FFEEB9"/>
<ellipse cx="123.901" cy="42" rx="43.6356" ry="42" fill="#FFEEB9"/>
<ellipse cx="210.169" cy="42" rx="42.6325" ry="42" fill="#FFEEB9"/>
<ellipse cx="295.935" cy="42" rx="43.1341" ry="42" fill="#FFEEB9"/>
<ellipse cx="379.695" cy="42" rx="42.6325" ry="42" fill="#FFEEB9"/>
<ellipse cx="465.462" cy="42" rx="43.1341" ry="42" fill="#FFEEB9"/>
<ellipse cx="551.73" cy="42" rx="43.1341" ry="42" fill="#FFEEB9"/>
<ellipse cx="637.497" cy="42" rx="42.6325" ry="42" fill="#FFEEB9"/>
<ellipse cx="894.295" cy="42" rx="42.6325" ry="42" fill="#FFEEB9"/>
<ellipse cx="808.529" cy="42" rx="43.1341" ry="42" fill="#FFEEB9"/>
<ellipse cx="723.263" cy="42" rx="43.1341" ry="42" fill="#FFEEB9"/>
<ellipse cx="980.062" cy="42" rx="43.1341" ry="42" fill="#FFEEB9"/>
<ellipse cx="1064.83" cy="42" rx="42.6325" ry="42" fill="#FFEEB9"/>
<ellipse cx="1151.09" cy="42" rx="43.6356" ry="42" fill="#FFEEB9"/>
<ellipse cx="1236.36" cy="42" rx="42.6325" ry="42" fill="#FFEEB9"/>
<ellipse cx="38.6266" cy="888" rx="42.6328" ry="42" fill="#FFEEB9"/>
<ellipse cx="124.895" cy="888" rx="43.6359" ry="42" fill="#FFEEB9"/>
<ellipse cx="211.164" cy="888" rx="42.6328" ry="42" fill="#FFEEB9"/>
<ellipse cx="296.931" cy="888" rx="43.1344" ry="42" fill="#FFEEB9"/>
<ellipse cx="380.692" cy="888" rx="42.6328" ry="42" fill="#FFEEB9"/>
<ellipse cx="466.46" cy="888" rx="43.1344" ry="42" fill="#FFEEB9"/>
<ellipse cx="552.728" cy="888" rx="43.1344" ry="42" fill="#FFEEB9"/>
<ellipse cx="638.496" cy="888" rx="42.6328" ry="42" fill="#FFEEB9"/>
<ellipse cx="895.295" cy="888" rx="42.6328" ry="42" fill="#FFEEB9"/>
<ellipse cx="809.528" cy="888" rx="43.1344" ry="42" fill="#FFEEB9"/>
<ellipse cx="724.262" cy="888" rx="43.1344" ry="42" fill="#FFEEB9"/>
<ellipse cx="981.062" cy="888" rx="43.1344" ry="42" fill="#FFEEB9"/>
<ellipse cx="1065.83" cy="888" rx="42.6328" ry="42" fill="#FFEEB9"/>
<ellipse cx="1152.09" cy="888" rx="43.6359" ry="42" fill="#FFEEB9"/>
<ellipse cx="1237.36" cy="888" rx="42.6328" ry="42" fill="#FFEEB9"/>
</svg>
