<svg width="1280" height="433" viewBox="0 0 1280 433" fill="none" xmlns="http://www.w3.org/2000/svg">
<rect width="1280" height="680" transform="matrix(1 0 0 -1 0 722)" fill="#BEC059"/>
<ellipse cx="42.5" cy="42" rx="42.5" ry="42" transform="matrix(1 0 0 -1 0 84)" fill="#BEC059"/>
<ellipse cx="43.5" cy="42" rx="43.5" ry="42" transform="matrix(1 0 0 -1 85 84)" fill="#BEC059"/>
<ellipse cx="42.5" cy="42" rx="42.5" ry="42" transform="matrix(1 0 0 -1 172 84)" fill="#BEC059"/>
<ellipse cx="43" cy="42" rx="43" ry="42" transform="matrix(1 0 0 -1 257 84)" fill="#BEC059"/>
<ellipse cx="42.5" cy="42" rx="42.5" ry="42" transform="matrix(1 0 0 -1 341 84)" fill="#BEC059"/>
<ellipse cx="43" cy="42" rx="43" ry="42" transform="matrix(1 0 0 -1 426 84)" fill="#BEC059"/>
<ellipse cx="43" cy="42" rx="43" ry="42" transform="matrix(1 0 0 -1 512 84)" fill="#BEC059"/>
<ellipse cx="42.5" cy="42" rx="42.5" ry="42" transform="matrix(1 0 0 -1 598 84)" fill="#BEC059"/>
<ellipse cx="42.5" cy="42" rx="42.5" ry="42" transform="matrix(1 0 0 -1 854 84)" fill="#BEC059"/>
<ellipse cx="43" cy="42" rx="43" ry="42" transform="matrix(1 0 0 -1 768 84)" fill="#BEC059"/>
<ellipse cx="43" cy="42" rx="43" ry="42" transform="matrix(1 0 0 -1 683 84)" fill="#BEC059"/>
<ellipse cx="43" cy="42" rx="43" ry="42" transform="matrix(1 0 0 -1 939 84)" fill="#BEC059"/>
<ellipse cx="42.5" cy="42" rx="42.5" ry="42" transform="matrix(1 0 0 -1 1024 84)" fill="#BEC059"/>
<ellipse cx="43.5" cy="42" rx="43.5" ry="42" transform="matrix(1 0 0 -1 1109 84)" fill="#BEC059"/>
<ellipse cx="42.5" cy="42" rx="42.5" ry="42" transform="matrix(1 0 0 -1 1195 84)" fill="#BEC059"/>
</svg>
